G04 #@! TF.GenerationSoftware,KiCad,Pcbnew,6.0.2+dfsg-1*
G04 #@! TF.CreationDate,2025-06-03T01:46:33+02:00*
G04 #@! TF.ProjectId,ramtest2114,72616d74-6573-4743-9231-31342e6b6963,rev?*
G04 #@! TF.SameCoordinates,Original*
G04 #@! TF.FileFunction,Legend,Top*
G04 #@! TF.FilePolarity,Positive*
%FSLAX46Y46*%
G04 Gerber Fmt 4.6, Leading zero omitted, Abs format (unit mm)*
G04 Created by KiCad (PCBNEW 6.0.2+dfsg-1) date 2025-06-03 01:46:33*
%MOMM*%
%LPD*%
G01*
G04 APERTURE LIST*
%ADD10C,0.228600*%
%ADD11C,0.300000*%
%ADD12C,0.150000*%
%ADD13C,0.120000*%
%ADD14C,0.100000*%
%ADD15R,2.000000X1.440000*%
%ADD16O,2.000000X1.440000*%
%ADD17O,1.600000X2.540000*%
%ADD18R,1.800000X2.540000*%
%ADD19O,1.800000X2.540000*%
%ADD20R,2.540000X1.600000*%
%ADD21O,2.540000X1.600000*%
G04 APERTURE END LIST*
D10*
X69015428Y-75227180D02*
X69741142Y-75227180D01*
X68870285Y-75662608D02*
X69378285Y-74138608D01*
X69886285Y-75662608D01*
X71265142Y-75662608D02*
X70757142Y-74936894D01*
X70394285Y-75662608D02*
X70394285Y-74138608D01*
X70974857Y-74138608D01*
X71120000Y-74211180D01*
X71192571Y-74283751D01*
X71265142Y-74428894D01*
X71265142Y-74646608D01*
X71192571Y-74791751D01*
X71120000Y-74864322D01*
X70974857Y-74936894D01*
X70394285Y-74936894D01*
X71918285Y-75662608D02*
X71918285Y-74138608D01*
X72281142Y-74138608D01*
X72498857Y-74211180D01*
X72644000Y-74356322D01*
X72716571Y-74501465D01*
X72789142Y-74791751D01*
X72789142Y-75009465D01*
X72716571Y-75299751D01*
X72644000Y-75444894D01*
X72498857Y-75590037D01*
X72281142Y-75662608D01*
X71918285Y-75662608D01*
X73442285Y-74138608D02*
X73442285Y-75372322D01*
X73514857Y-75517465D01*
X73587428Y-75590037D01*
X73732571Y-75662608D01*
X74022857Y-75662608D01*
X74168000Y-75590037D01*
X74240571Y-75517465D01*
X74313142Y-75372322D01*
X74313142Y-74138608D01*
X75038857Y-75662608D02*
X75038857Y-74138608D01*
X75764571Y-75662608D02*
X75764571Y-74138608D01*
X76635428Y-75662608D01*
X76635428Y-74138608D01*
X77651428Y-74138608D02*
X77941714Y-74138608D01*
X78086857Y-74211180D01*
X78232000Y-74356322D01*
X78304571Y-74646608D01*
X78304571Y-75154608D01*
X78232000Y-75444894D01*
X78086857Y-75590037D01*
X77941714Y-75662608D01*
X77651428Y-75662608D01*
X77506285Y-75590037D01*
X77361142Y-75444894D01*
X77288571Y-75154608D01*
X77288571Y-74646608D01*
X77361142Y-74356322D01*
X77506285Y-74211180D01*
X77651428Y-74138608D01*
X70974857Y-78116248D02*
X70974857Y-76592248D01*
X71845714Y-78116248D01*
X71845714Y-76592248D01*
X72498857Y-77680820D02*
X73224571Y-77680820D01*
X72353714Y-78116248D02*
X72861714Y-76592248D01*
X73369714Y-78116248D01*
X73877714Y-78116248D02*
X73877714Y-76592248D01*
X74748571Y-78116248D01*
X74748571Y-76592248D01*
X75764571Y-76592248D02*
X76054857Y-76592248D01*
X76200000Y-76664820D01*
X76345142Y-76809962D01*
X76417714Y-77100248D01*
X76417714Y-77608248D01*
X76345142Y-77898534D01*
X76200000Y-78043677D01*
X76054857Y-78116248D01*
X75764571Y-78116248D01*
X75619428Y-78043677D01*
X75474285Y-77898534D01*
X75401714Y-77608248D01*
X75401714Y-77100248D01*
X75474285Y-76809962D01*
X75619428Y-76664820D01*
X75764571Y-76592248D01*
D11*
X84059142Y-95275238D02*
X84154380Y-95180000D01*
X84344857Y-95084761D01*
X84821047Y-95084761D01*
X85011523Y-95180000D01*
X85106761Y-95275238D01*
X85202000Y-95465714D01*
X85202000Y-95656190D01*
X85106761Y-95941904D01*
X83963904Y-97084761D01*
X85202000Y-97084761D01*
X87106761Y-97084761D02*
X85963904Y-97084761D01*
X86535333Y-97084761D02*
X86535333Y-95084761D01*
X86344857Y-95370476D01*
X86154380Y-95560952D01*
X85963904Y-95656190D01*
X89011523Y-97084761D02*
X87868666Y-97084761D01*
X88440095Y-97084761D02*
X88440095Y-95084761D01*
X88249619Y-95370476D01*
X88059142Y-95560952D01*
X87868666Y-95656190D01*
X90725809Y-95751428D02*
X90725809Y-97084761D01*
X90249619Y-94989523D02*
X89773428Y-96418095D01*
X91011523Y-96418095D01*
X93202000Y-96989523D02*
X93487714Y-97084761D01*
X93963904Y-97084761D01*
X94154380Y-96989523D01*
X94249619Y-96894285D01*
X94344857Y-96703809D01*
X94344857Y-96513333D01*
X94249619Y-96322857D01*
X94154380Y-96227619D01*
X93963904Y-96132380D01*
X93582952Y-96037142D01*
X93392476Y-95941904D01*
X93297238Y-95846666D01*
X93202000Y-95656190D01*
X93202000Y-95465714D01*
X93297238Y-95275238D01*
X93392476Y-95180000D01*
X93582952Y-95084761D01*
X94059142Y-95084761D01*
X94344857Y-95180000D01*
X96344857Y-97084761D02*
X95678190Y-96132380D01*
X95202000Y-97084761D02*
X95202000Y-95084761D01*
X95963904Y-95084761D01*
X96154380Y-95180000D01*
X96249619Y-95275238D01*
X96344857Y-95465714D01*
X96344857Y-95751428D01*
X96249619Y-95941904D01*
X96154380Y-96037142D01*
X95963904Y-96132380D01*
X95202000Y-96132380D01*
X97106761Y-96513333D02*
X98059142Y-96513333D01*
X96916285Y-97084761D02*
X97582952Y-95084761D01*
X98249619Y-97084761D01*
X98916285Y-97084761D02*
X98916285Y-95084761D01*
X99582952Y-96513333D01*
X100249619Y-95084761D01*
X100249619Y-97084761D01*
X87106761Y-98304761D02*
X88249619Y-98304761D01*
X87678190Y-100304761D02*
X87678190Y-98304761D01*
X88916285Y-99257142D02*
X89582952Y-99257142D01*
X89868666Y-100304761D02*
X88916285Y-100304761D01*
X88916285Y-98304761D01*
X89868666Y-98304761D01*
X90630571Y-100209523D02*
X90916285Y-100304761D01*
X91392476Y-100304761D01*
X91582952Y-100209523D01*
X91678190Y-100114285D01*
X91773428Y-99923809D01*
X91773428Y-99733333D01*
X91678190Y-99542857D01*
X91582952Y-99447619D01*
X91392476Y-99352380D01*
X91011523Y-99257142D01*
X90821047Y-99161904D01*
X90725809Y-99066666D01*
X90630571Y-98876190D01*
X90630571Y-98685714D01*
X90725809Y-98495238D01*
X90821047Y-98400000D01*
X91011523Y-98304761D01*
X91487714Y-98304761D01*
X91773428Y-98400000D01*
X92344857Y-98304761D02*
X93487714Y-98304761D01*
X92916285Y-100304761D02*
X92916285Y-98304761D01*
X94154380Y-99257142D02*
X94821047Y-99257142D01*
X95106761Y-100304761D02*
X94154380Y-100304761D01*
X94154380Y-98304761D01*
X95106761Y-98304761D01*
X97106761Y-100304761D02*
X96440095Y-99352380D01*
X95963904Y-100304761D02*
X95963904Y-98304761D01*
X96725809Y-98304761D01*
X96916285Y-98400000D01*
X97011523Y-98495238D01*
X97106761Y-98685714D01*
X97106761Y-98971428D01*
X97011523Y-99161904D01*
X96916285Y-99257142D01*
X96725809Y-99352380D01*
X95963904Y-99352380D01*
D12*
X56539047Y-86812380D02*
X56539047Y-85812380D01*
X56920000Y-85812380D01*
X57015238Y-85860000D01*
X57062857Y-85907619D01*
X57110476Y-86002857D01*
X57110476Y-86145714D01*
X57062857Y-86240952D01*
X57015238Y-86288571D01*
X56920000Y-86336190D01*
X56539047Y-86336190D01*
X57539047Y-86812380D02*
X57539047Y-85812380D01*
X58015238Y-86812380D02*
X58015238Y-85812380D01*
X58586666Y-86812380D01*
X58586666Y-85812380D01*
X60348571Y-86812380D02*
X59777142Y-86812380D01*
X60062857Y-86812380D02*
X60062857Y-85812380D01*
X59967619Y-85955238D01*
X59872380Y-86050476D01*
X59777142Y-86098095D01*
X36442857Y-53792380D02*
X36442857Y-52792380D01*
X36871428Y-53792380D02*
X36871428Y-53268571D01*
X36823809Y-53173333D01*
X36728571Y-53125714D01*
X36585714Y-53125714D01*
X36490476Y-53173333D01*
X36442857Y-53220952D01*
X37204761Y-53125714D02*
X37585714Y-53125714D01*
X37347619Y-52792380D02*
X37347619Y-53649523D01*
X37395238Y-53744761D01*
X37490476Y-53792380D01*
X37585714Y-53792380D01*
X37776190Y-53125714D02*
X38157142Y-53125714D01*
X37919047Y-52792380D02*
X37919047Y-53649523D01*
X37966666Y-53744761D01*
X38061904Y-53792380D01*
X38157142Y-53792380D01*
X38490476Y-53125714D02*
X38490476Y-54125714D01*
X38490476Y-53173333D02*
X38585714Y-53125714D01*
X38776190Y-53125714D01*
X38871428Y-53173333D01*
X38919047Y-53220952D01*
X38966666Y-53316190D01*
X38966666Y-53601904D01*
X38919047Y-53697142D01*
X38871428Y-53744761D01*
X38776190Y-53792380D01*
X38585714Y-53792380D01*
X38490476Y-53744761D01*
X39347619Y-53744761D02*
X39442857Y-53792380D01*
X39633333Y-53792380D01*
X39728571Y-53744761D01*
X39776190Y-53649523D01*
X39776190Y-53601904D01*
X39728571Y-53506666D01*
X39633333Y-53459047D01*
X39490476Y-53459047D01*
X39395238Y-53411428D01*
X39347619Y-53316190D01*
X39347619Y-53268571D01*
X39395238Y-53173333D01*
X39490476Y-53125714D01*
X39633333Y-53125714D01*
X39728571Y-53173333D01*
X40204761Y-53697142D02*
X40252380Y-53744761D01*
X40204761Y-53792380D01*
X40157142Y-53744761D01*
X40204761Y-53697142D01*
X40204761Y-53792380D01*
X40204761Y-53173333D02*
X40252380Y-53220952D01*
X40204761Y-53268571D01*
X40157142Y-53220952D01*
X40204761Y-53173333D01*
X40204761Y-53268571D01*
X41395238Y-52744761D02*
X40538095Y-54030476D01*
X42442857Y-52744761D02*
X41585714Y-54030476D01*
X43204761Y-53125714D02*
X43204761Y-53935238D01*
X43157142Y-54030476D01*
X43109523Y-54078095D01*
X43014285Y-54125714D01*
X42871428Y-54125714D01*
X42776190Y-54078095D01*
X43204761Y-53744761D02*
X43109523Y-53792380D01*
X42919047Y-53792380D01*
X42823809Y-53744761D01*
X42776190Y-53697142D01*
X42728571Y-53601904D01*
X42728571Y-53316190D01*
X42776190Y-53220952D01*
X42823809Y-53173333D01*
X42919047Y-53125714D01*
X43109523Y-53125714D01*
X43204761Y-53173333D01*
X43680952Y-53792380D02*
X43680952Y-53125714D01*
X43680952Y-52792380D02*
X43633333Y-52840000D01*
X43680952Y-52887619D01*
X43728571Y-52840000D01*
X43680952Y-52792380D01*
X43680952Y-52887619D01*
X44014285Y-53125714D02*
X44395238Y-53125714D01*
X44157142Y-52792380D02*
X44157142Y-53649523D01*
X44204761Y-53744761D01*
X44300000Y-53792380D01*
X44395238Y-53792380D01*
X44728571Y-53792380D02*
X44728571Y-52792380D01*
X45157142Y-53792380D02*
X45157142Y-53268571D01*
X45109523Y-53173333D01*
X45014285Y-53125714D01*
X44871428Y-53125714D01*
X44776190Y-53173333D01*
X44728571Y-53220952D01*
X46061904Y-53125714D02*
X46061904Y-53792380D01*
X45633333Y-53125714D02*
X45633333Y-53649523D01*
X45680952Y-53744761D01*
X45776190Y-53792380D01*
X45919047Y-53792380D01*
X46014285Y-53744761D01*
X46061904Y-53697142D01*
X46538095Y-53792380D02*
X46538095Y-52792380D01*
X46538095Y-53173333D02*
X46633333Y-53125714D01*
X46823809Y-53125714D01*
X46919047Y-53173333D01*
X46966666Y-53220952D01*
X47014285Y-53316190D01*
X47014285Y-53601904D01*
X46966666Y-53697142D01*
X46919047Y-53744761D01*
X46823809Y-53792380D01*
X46633333Y-53792380D01*
X46538095Y-53744761D01*
X47442857Y-53697142D02*
X47490476Y-53744761D01*
X47442857Y-53792380D01*
X47395238Y-53744761D01*
X47442857Y-53697142D01*
X47442857Y-53792380D01*
X48347619Y-53744761D02*
X48252380Y-53792380D01*
X48061904Y-53792380D01*
X47966666Y-53744761D01*
X47919047Y-53697142D01*
X47871428Y-53601904D01*
X47871428Y-53316190D01*
X47919047Y-53220952D01*
X47966666Y-53173333D01*
X48061904Y-53125714D01*
X48252380Y-53125714D01*
X48347619Y-53173333D01*
X48919047Y-53792380D02*
X48823809Y-53744761D01*
X48776190Y-53697142D01*
X48728571Y-53601904D01*
X48728571Y-53316190D01*
X48776190Y-53220952D01*
X48823809Y-53173333D01*
X48919047Y-53125714D01*
X49061904Y-53125714D01*
X49157142Y-53173333D01*
X49204761Y-53220952D01*
X49252380Y-53316190D01*
X49252380Y-53601904D01*
X49204761Y-53697142D01*
X49157142Y-53744761D01*
X49061904Y-53792380D01*
X48919047Y-53792380D01*
X49680952Y-53792380D02*
X49680952Y-53125714D01*
X49680952Y-53220952D02*
X49728571Y-53173333D01*
X49823809Y-53125714D01*
X49966666Y-53125714D01*
X50061904Y-53173333D01*
X50109523Y-53268571D01*
X50109523Y-53792380D01*
X50109523Y-53268571D02*
X50157142Y-53173333D01*
X50252380Y-53125714D01*
X50395238Y-53125714D01*
X50490476Y-53173333D01*
X50538095Y-53268571D01*
X50538095Y-53792380D01*
X51728571Y-52744761D02*
X50871428Y-54030476D01*
X52061904Y-53792380D02*
X52061904Y-53125714D01*
X52061904Y-52792380D02*
X52014285Y-52840000D01*
X52061904Y-52887619D01*
X52109523Y-52840000D01*
X52061904Y-52792380D01*
X52061904Y-52887619D01*
X52442857Y-53125714D02*
X52680952Y-53792380D01*
X52919047Y-53125714D01*
X53442857Y-53792380D02*
X53347619Y-53744761D01*
X53300000Y-53697142D01*
X53252380Y-53601904D01*
X53252380Y-53316190D01*
X53300000Y-53220952D01*
X53347619Y-53173333D01*
X53442857Y-53125714D01*
X53585714Y-53125714D01*
X53680952Y-53173333D01*
X53728571Y-53220952D01*
X53776190Y-53316190D01*
X53776190Y-53601904D01*
X53728571Y-53697142D01*
X53680952Y-53744761D01*
X53585714Y-53792380D01*
X53442857Y-53792380D01*
X54204761Y-53125714D02*
X54204761Y-54125714D01*
X54204761Y-53173333D02*
X54299999Y-53125714D01*
X54490476Y-53125714D01*
X54585714Y-53173333D01*
X54633333Y-53220952D01*
X54680952Y-53316190D01*
X54680952Y-53601904D01*
X54633333Y-53697142D01*
X54585714Y-53744761D01*
X54490476Y-53792380D01*
X54299999Y-53792380D01*
X54204761Y-53744761D01*
X55823809Y-52744761D02*
X54966666Y-54030476D01*
X56157142Y-53792380D02*
X56157142Y-53125714D01*
X56157142Y-53316190D02*
X56204761Y-53220952D01*
X56252380Y-53173333D01*
X56347619Y-53125714D01*
X56442857Y-53125714D01*
X57204761Y-53792380D02*
X57204761Y-53268571D01*
X57157142Y-53173333D01*
X57061904Y-53125714D01*
X56871428Y-53125714D01*
X56776190Y-53173333D01*
X57204761Y-53744761D02*
X57109523Y-53792380D01*
X56871428Y-53792380D01*
X56776190Y-53744761D01*
X56728571Y-53649523D01*
X56728571Y-53554285D01*
X56776190Y-53459047D01*
X56871428Y-53411428D01*
X57109523Y-53411428D01*
X57204761Y-53363809D01*
X57680952Y-53792380D02*
X57680952Y-53125714D01*
X57680952Y-53220952D02*
X57728571Y-53173333D01*
X57823809Y-53125714D01*
X57966666Y-53125714D01*
X58061904Y-53173333D01*
X58109523Y-53268571D01*
X58109523Y-53792380D01*
X58109523Y-53268571D02*
X58157142Y-53173333D01*
X58252380Y-53125714D01*
X58395238Y-53125714D01*
X58490476Y-53173333D01*
X58538095Y-53268571D01*
X58538095Y-53792380D01*
X58871428Y-53125714D02*
X59252380Y-53125714D01*
X59014285Y-52792380D02*
X59014285Y-53649523D01*
X59061904Y-53744761D01*
X59157142Y-53792380D01*
X59252380Y-53792380D01*
X59966666Y-53744761D02*
X59871428Y-53792380D01*
X59680952Y-53792380D01*
X59585714Y-53744761D01*
X59538095Y-53649523D01*
X59538095Y-53268571D01*
X59585714Y-53173333D01*
X59680952Y-53125714D01*
X59871428Y-53125714D01*
X59966666Y-53173333D01*
X60014285Y-53268571D01*
X60014285Y-53363809D01*
X59538095Y-53459047D01*
X60395238Y-53744761D02*
X60490476Y-53792380D01*
X60680952Y-53792380D01*
X60776190Y-53744761D01*
X60823809Y-53649523D01*
X60823809Y-53601904D01*
X60776190Y-53506666D01*
X60680952Y-53459047D01*
X60538095Y-53459047D01*
X60442857Y-53411428D01*
X60395238Y-53316190D01*
X60395238Y-53268571D01*
X60442857Y-53173333D01*
X60538095Y-53125714D01*
X60680952Y-53125714D01*
X60776190Y-53173333D01*
X61109523Y-53125714D02*
X61490476Y-53125714D01*
X61252380Y-52792380D02*
X61252380Y-53649523D01*
X61299999Y-53744761D01*
X61395238Y-53792380D01*
X61490476Y-53792380D01*
X61776190Y-52887619D02*
X61823809Y-52840000D01*
X61919047Y-52792380D01*
X62157142Y-52792380D01*
X62252380Y-52840000D01*
X62299999Y-52887619D01*
X62347619Y-52982857D01*
X62347619Y-53078095D01*
X62299999Y-53220952D01*
X61728571Y-53792380D01*
X62347619Y-53792380D01*
X63299999Y-53792380D02*
X62728571Y-53792380D01*
X63014285Y-53792380D02*
X63014285Y-52792380D01*
X62919047Y-52935238D01*
X62823809Y-53030476D01*
X62728571Y-53078095D01*
X64252380Y-53792380D02*
X63680952Y-53792380D01*
X63966666Y-53792380D02*
X63966666Y-52792380D01*
X63871428Y-52935238D01*
X63776190Y-53030476D01*
X63680952Y-53078095D01*
X65109523Y-53125714D02*
X65109523Y-53792380D01*
X64871428Y-52744761D02*
X64633333Y-53459047D01*
X65252380Y-53459047D01*
D10*
X45466000Y-59914608D02*
X46482000Y-59914608D01*
X45466000Y-61438608D01*
X46482000Y-61438608D01*
X47062571Y-61438608D02*
X47062571Y-59914608D01*
X48296285Y-60640322D02*
X47788285Y-60640322D01*
X47788285Y-61438608D02*
X47788285Y-59914608D01*
X48514000Y-59914608D01*
X43071142Y-63892248D02*
X43071142Y-62368248D01*
X43434000Y-62368248D01*
X43651714Y-62440820D01*
X43796857Y-62585962D01*
X43869428Y-62731105D01*
X43942000Y-63021391D01*
X43942000Y-63239105D01*
X43869428Y-63529391D01*
X43796857Y-63674534D01*
X43651714Y-63819677D01*
X43434000Y-63892248D01*
X43071142Y-63892248D01*
X44595142Y-63892248D02*
X44595142Y-62368248D01*
X45320857Y-63892248D02*
X45320857Y-62368248D01*
X45901428Y-62368248D01*
X46046571Y-62440820D01*
X46119142Y-62513391D01*
X46191714Y-62658534D01*
X46191714Y-62876248D01*
X46119142Y-63021391D01*
X46046571Y-63093962D01*
X45901428Y-63166534D01*
X45320857Y-63166534D01*
X46844857Y-63311677D02*
X48006000Y-63311677D01*
X49530000Y-63892248D02*
X48659142Y-63892248D01*
X49094571Y-63892248D02*
X49094571Y-62368248D01*
X48949428Y-62585962D01*
X48804285Y-62731105D01*
X48659142Y-62803677D01*
X50400857Y-63021391D02*
X50255714Y-62948820D01*
X50183142Y-62876248D01*
X50110571Y-62731105D01*
X50110571Y-62658534D01*
X50183142Y-62513391D01*
X50255714Y-62440820D01*
X50400857Y-62368248D01*
X50691142Y-62368248D01*
X50836285Y-62440820D01*
X50908857Y-62513391D01*
X50981428Y-62658534D01*
X50981428Y-62731105D01*
X50908857Y-62876248D01*
X50836285Y-62948820D01*
X50691142Y-63021391D01*
X50400857Y-63021391D01*
X50255714Y-63093962D01*
X50183142Y-63166534D01*
X50110571Y-63311677D01*
X50110571Y-63601962D01*
X50183142Y-63747105D01*
X50255714Y-63819677D01*
X50400857Y-63892248D01*
X50691142Y-63892248D01*
X50836285Y-63819677D01*
X50908857Y-63747105D01*
X50981428Y-63601962D01*
X50981428Y-63311677D01*
X50908857Y-63166534D01*
X50836285Y-63093962D01*
X50691142Y-63021391D01*
D12*
X37569047Y-100274380D02*
X37235714Y-99798190D01*
X36997619Y-100274380D02*
X36997619Y-99274380D01*
X37378571Y-99274380D01*
X37473809Y-99322000D01*
X37521428Y-99369619D01*
X37569047Y-99464857D01*
X37569047Y-99607714D01*
X37521428Y-99702952D01*
X37473809Y-99750571D01*
X37378571Y-99798190D01*
X36997619Y-99798190D01*
X37997619Y-99750571D02*
X38330952Y-99750571D01*
X38473809Y-100274380D02*
X37997619Y-100274380D01*
X37997619Y-99274380D01*
X38473809Y-99274380D01*
X38759523Y-99274380D02*
X39092857Y-100274380D01*
X39426190Y-99274380D01*
X41045238Y-100274380D02*
X40473809Y-100274380D01*
X40759523Y-100274380D02*
X40759523Y-99274380D01*
X40664285Y-99417238D01*
X40569047Y-99512476D01*
X40473809Y-99560095D01*
X42950000Y-99226761D02*
X42092857Y-100512476D01*
X44330952Y-99274380D02*
X44330952Y-99988666D01*
X44283333Y-100131523D01*
X44188095Y-100226761D01*
X44045238Y-100274380D01*
X43950000Y-100274380D01*
X44807142Y-99274380D02*
X44807142Y-100083904D01*
X44854761Y-100179142D01*
X44902380Y-100226761D01*
X44997619Y-100274380D01*
X45188095Y-100274380D01*
X45283333Y-100226761D01*
X45330952Y-100179142D01*
X45378571Y-100083904D01*
X45378571Y-99274380D01*
X45854761Y-100274380D02*
X45854761Y-99274380D01*
X46426190Y-100274380D01*
X46426190Y-99274380D01*
X46902380Y-99750571D02*
X47235714Y-99750571D01*
X47378571Y-100274380D02*
X46902380Y-100274380D01*
X46902380Y-99274380D01*
X47378571Y-99274380D01*
X48521428Y-99369619D02*
X48569047Y-99322000D01*
X48664285Y-99274380D01*
X48902380Y-99274380D01*
X48997619Y-99322000D01*
X49045238Y-99369619D01*
X49092857Y-99464857D01*
X49092857Y-99560095D01*
X49045238Y-99702952D01*
X48473809Y-100274380D01*
X49092857Y-100274380D01*
X49711904Y-99274380D02*
X49807142Y-99274380D01*
X49902380Y-99322000D01*
X49949999Y-99369619D01*
X49997619Y-99464857D01*
X50045238Y-99655333D01*
X50045238Y-99893428D01*
X49997619Y-100083904D01*
X49949999Y-100179142D01*
X49902380Y-100226761D01*
X49807142Y-100274380D01*
X49711904Y-100274380D01*
X49616666Y-100226761D01*
X49569047Y-100179142D01*
X49521428Y-100083904D01*
X49473809Y-99893428D01*
X49473809Y-99655333D01*
X49521428Y-99464857D01*
X49569047Y-99369619D01*
X49616666Y-99322000D01*
X49711904Y-99274380D01*
X50426190Y-99369619D02*
X50473809Y-99322000D01*
X50569047Y-99274380D01*
X50807142Y-99274380D01*
X50902380Y-99322000D01*
X50949999Y-99369619D01*
X50997619Y-99464857D01*
X50997619Y-99560095D01*
X50949999Y-99702952D01*
X50378571Y-100274380D01*
X50997619Y-100274380D01*
X51902380Y-99274380D02*
X51426190Y-99274380D01*
X51378571Y-99750571D01*
X51426190Y-99702952D01*
X51521428Y-99655333D01*
X51759523Y-99655333D01*
X51854761Y-99702952D01*
X51902380Y-99750571D01*
X51949999Y-99845809D01*
X51949999Y-100083904D01*
X51902380Y-100179142D01*
X51854761Y-100226761D01*
X51759523Y-100274380D01*
X51521428Y-100274380D01*
X51426190Y-100226761D01*
X51378571Y-100179142D01*
X96972380Y-85256666D02*
X96496190Y-85590000D01*
X96972380Y-85828095D02*
X95972380Y-85828095D01*
X95972380Y-85447142D01*
X96020000Y-85351904D01*
X96067619Y-85304285D01*
X96162857Y-85256666D01*
X96305714Y-85256666D01*
X96400952Y-85304285D01*
X96448571Y-85351904D01*
X96496190Y-85447142D01*
X96496190Y-85828095D01*
X96972380Y-84304285D02*
X96972380Y-84875714D01*
X96972380Y-84590000D02*
X95972380Y-84590000D01*
X96115238Y-84685238D01*
X96210476Y-84780476D01*
X96258095Y-84875714D01*
X96972380Y-64936666D02*
X96496190Y-65270000D01*
X96972380Y-65508095D02*
X95972380Y-65508095D01*
X95972380Y-65127142D01*
X96020000Y-65031904D01*
X96067619Y-64984285D01*
X96162857Y-64936666D01*
X96305714Y-64936666D01*
X96400952Y-64984285D01*
X96448571Y-65031904D01*
X96496190Y-65127142D01*
X96496190Y-65508095D01*
X96067619Y-64555714D02*
X96020000Y-64508095D01*
X95972380Y-64412857D01*
X95972380Y-64174761D01*
X96020000Y-64079523D01*
X96067619Y-64031904D01*
X96162857Y-63984285D01*
X96258095Y-63984285D01*
X96400952Y-64031904D01*
X96972380Y-64603333D01*
X96972380Y-63984285D01*
D13*
X39290000Y-59020000D02*
X39290000Y-97020000D01*
X55750000Y-85090000D02*
X55750000Y-87630000D01*
X54690000Y-59020000D02*
X39290000Y-59020000D01*
X52450000Y-97020000D02*
X52450000Y-94760000D01*
X54690000Y-90260000D02*
X54690000Y-59020000D01*
X54690000Y-97020000D02*
X54690000Y-95160000D01*
X39290000Y-97020000D02*
X54690000Y-97020000D01*
X56550000Y-92710000D02*
G75*
G03*
X56550000Y-92710000I-2550000J0D01*
G01*
X54900000Y-92710000D02*
G75*
G03*
X54900000Y-92710000I-900000J0D01*
G01*
X96520000Y-77240000D02*
X96520000Y-77930000D01*
X94800000Y-87170000D02*
X98240000Y-87170000D01*
X98240000Y-87170000D02*
X98240000Y-77930000D01*
X94800000Y-77930000D02*
X94800000Y-87170000D01*
X96520000Y-87860000D02*
X96520000Y-87170000D01*
X98240000Y-77930000D02*
X94800000Y-77930000D01*
X92730000Y-77745000D02*
X92730000Y-74655000D01*
X92730000Y-74655170D02*
G75*
G03*
X87180000Y-76200462I-2560000J-1544830D01*
G01*
X87180000Y-76199538D02*
G75*
G03*
X92730000Y-77744830I2990000J-462D01*
G01*
X92670000Y-76200000D02*
G75*
G03*
X92670000Y-76200000I-2500000J0D01*
G01*
X98240000Y-66850000D02*
X98240000Y-57610000D01*
X94800000Y-57610000D02*
X94800000Y-66850000D01*
X94800000Y-66850000D02*
X98240000Y-66850000D01*
X98240000Y-57610000D02*
X94800000Y-57610000D01*
X96520000Y-56920000D02*
X96520000Y-57610000D01*
X96520000Y-67540000D02*
X96520000Y-66850000D01*
D14*
X69850000Y-90170000D02*
X77470000Y-90170000D01*
D13*
X64640000Y-54480000D02*
X64640000Y-57150000D01*
X82680000Y-97920000D02*
X82680000Y-54480000D01*
D14*
X77470000Y-90170000D02*
X77470000Y-100330000D01*
D13*
X64640000Y-57150000D02*
X64640000Y-59690000D01*
X82680000Y-54480000D02*
X64640000Y-54480000D01*
D14*
X69850000Y-100330000D02*
X69850000Y-90170000D01*
D13*
X64640000Y-59690000D02*
X64640000Y-97920000D01*
D14*
X77470000Y-100330000D02*
X69850000Y-100330000D01*
D13*
X64640000Y-97920000D02*
X82680000Y-97920000D01*
X92730000Y-70125000D02*
X92730000Y-67035000D01*
X92730000Y-67035170D02*
G75*
G03*
X87180000Y-68580462I-2560000J-1544830D01*
G01*
X87180000Y-68579538D02*
G75*
G03*
X92730000Y-70124830I2990000J-462D01*
G01*
X92670000Y-68580000D02*
G75*
G03*
X92670000Y-68580000I-2500000J0D01*
G01*
%LPC*%
D15*
X50800000Y-86360000D03*
D16*
X50800000Y-83820000D03*
X50800000Y-81280000D03*
X50800000Y-78740000D03*
X50800000Y-76200000D03*
X50800000Y-73660000D03*
X50800000Y-71120000D03*
X50800000Y-68580000D03*
X50800000Y-66040000D03*
X43180000Y-66040000D03*
X43180000Y-68580000D03*
X43180000Y-71120000D03*
X43180000Y-73660000D03*
X43180000Y-76200000D03*
X43180000Y-78740000D03*
X43180000Y-81280000D03*
X43180000Y-83820000D03*
X43180000Y-86360000D03*
D17*
X96520000Y-76200000D03*
X96520000Y-88900000D03*
D18*
X91440000Y-76200000D03*
D19*
X88900000Y-76200000D03*
D17*
X96520000Y-68580000D03*
X96520000Y-55880000D03*
D20*
X66040000Y-58420000D03*
D21*
X66040000Y-60960000D03*
X66040000Y-63500000D03*
X66040000Y-66040000D03*
X66040000Y-68580000D03*
X66040000Y-71120000D03*
X66040000Y-73660000D03*
X66040000Y-76200000D03*
X66040000Y-78740000D03*
X66040000Y-81280000D03*
X66040000Y-83820000D03*
X66040000Y-86360000D03*
X66040000Y-88900000D03*
X66040000Y-91440000D03*
X66040000Y-93980000D03*
X81280000Y-93980000D03*
X81280000Y-91440000D03*
X81280000Y-88900000D03*
X81280000Y-86360000D03*
X81280000Y-83820000D03*
X81280000Y-81280000D03*
X81280000Y-78740000D03*
X81280000Y-76200000D03*
X81280000Y-73660000D03*
X81280000Y-71120000D03*
X81280000Y-68580000D03*
X81280000Y-66040000D03*
X81280000Y-63500000D03*
X81280000Y-60960000D03*
X81280000Y-58420000D03*
D18*
X91440000Y-68580000D03*
D19*
X88900000Y-68580000D03*
M02*
