G04 #@! TF.GenerationSoftware,KiCad,Pcbnew,6.0.2+dfsg-1*
G04 #@! TF.CreationDate,2025-06-03T01:46:34+02:00*
G04 #@! TF.ProjectId,ramtest2114,72616d74-6573-4743-9231-31342e6b6963,rev?*
G04 #@! TF.SameCoordinates,Original*
G04 #@! TF.FileFunction,Legend,Bot*
G04 #@! TF.FilePolarity,Positive*
%FSLAX46Y46*%
G04 Gerber Fmt 4.6, Leading zero omitted, Abs format (unit mm)*
G04 Created by KiCad (PCBNEW 6.0.2+dfsg-1) date 2025-06-03 01:46:34*
%MOMM*%
%LPD*%
G01*
G04 APERTURE LIST*
%ADD10R,2.000000X1.440000*%
%ADD11O,2.000000X1.440000*%
%ADD12O,1.600000X2.540000*%
%ADD13R,1.800000X2.540000*%
%ADD14O,1.800000X2.540000*%
%ADD15R,2.540000X1.600000*%
%ADD16O,2.540000X1.600000*%
G04 APERTURE END LIST*
%LPC*%
D10*
X50800000Y-86360000D03*
D11*
X50800000Y-83820000D03*
X50800000Y-81280000D03*
X50800000Y-78740000D03*
X50800000Y-76200000D03*
X50800000Y-73660000D03*
X50800000Y-71120000D03*
X50800000Y-68580000D03*
X50800000Y-66040000D03*
X43180000Y-66040000D03*
X43180000Y-68580000D03*
X43180000Y-71120000D03*
X43180000Y-73660000D03*
X43180000Y-76200000D03*
X43180000Y-78740000D03*
X43180000Y-81280000D03*
X43180000Y-83820000D03*
X43180000Y-86360000D03*
D12*
X96520000Y-76200000D03*
X96520000Y-88900000D03*
D13*
X91440000Y-76200000D03*
D14*
X88900000Y-76200000D03*
D12*
X96520000Y-68580000D03*
X96520000Y-55880000D03*
D15*
X66040000Y-58420000D03*
D16*
X66040000Y-60960000D03*
X66040000Y-63500000D03*
X66040000Y-66040000D03*
X66040000Y-68580000D03*
X66040000Y-71120000D03*
X66040000Y-73660000D03*
X66040000Y-76200000D03*
X66040000Y-78740000D03*
X66040000Y-81280000D03*
X66040000Y-83820000D03*
X66040000Y-86360000D03*
X66040000Y-88900000D03*
X66040000Y-91440000D03*
X66040000Y-93980000D03*
X81280000Y-93980000D03*
X81280000Y-91440000D03*
X81280000Y-88900000D03*
X81280000Y-86360000D03*
X81280000Y-83820000D03*
X81280000Y-81280000D03*
X81280000Y-78740000D03*
X81280000Y-76200000D03*
X81280000Y-73660000D03*
X81280000Y-71120000D03*
X81280000Y-68580000D03*
X81280000Y-66040000D03*
X81280000Y-63500000D03*
X81280000Y-60960000D03*
X81280000Y-58420000D03*
D13*
X91440000Y-68580000D03*
D14*
X88900000Y-68580000D03*
M02*
